<svg id="apps-add_3_" data-name="apps-add (3)"
    xmlns="http://www.w3.org/2000/svg" width="42" height="42" viewBox="0 0 42 42">
    <path id="Path_133" data-name="Path 133" d="M7,0h5.25a7,7,0,0,1,7,7v5.25a7,7,0,0,1-7,7H7a7,7,0,0,1-7-7V7A7,7,0,0,1,7,0Z" fill="#fff" />
    <path id="Path_134" data-name="Path 134" d="M7,277.333h5.25a7,7,0,0,1,7,7v5.25a7,7,0,0,1-7,7H7a7,7,0,0,1-7-7v-5.25A7,7,0,0,1,7,277.333Z" transform="translate(0 -254.583)" fill="#fff" />
    <path id="Path_135" data-name="Path 135" d="M284.334,277.333h5.25a7,7,0,0,1,7,7v5.25a7,7,0,0,1-7,7h-5.25a7,7,0,0,1-7-7v-5.25A7,7,0,0,1,284.334,277.333Z" transform="translate(-254.584 -254.583)" fill="#fff" />
    <path id="Path_136" data-name="Path 136" d="M279.084,31.834h5.25v5.25a1.75,1.75,0,1,0,3.5,0v-5.25h5.25a1.75,1.75,0,0,0,0-3.5h-5.25v-5.25a1.75,1.75,0,1,0-3.5,0v5.25h-5.25a1.75,1.75,0,0,0,0,3.5Z" transform="translate(-254.584 -19.584)" fill="#fff" />
</svg>